<?xml version="1.0" encoding="utf-8"?>
<!-- Generator: Adobe Illustrator 24.1.0, SVG Export Plug-In . SVG Version: 6.00 Build 0)  -->
<svg version="1.1" xmlns="http://www.w3.org/2000/svg" xmlns:xlink="http://www.w3.org/1999/xlink" x="0px" y="0px"
	 viewBox="0 0 24 24" style="enable-background:new 0 0 24 24;" xml:space="preserve">
<style type="text/css">
	.st0{fill:#FFFFFF;}
	.st1{fill:none;}
</style>
<g id="Basilica_of_the_Sacré-Coeur">
</g>
<g id="Louvre_Museum">
</g>
<g id="Chalet">
</g>
<g id="Pantehon">
</g>
<g id="French_Flag">
</g>
<g id="Pastry">
</g>
<g id="Frappe">
</g>
<g id="Cafe">
</g>
<g id="Bicycle">
</g>
<g id="Cheese">
</g>
<g id="Scooter">
</g>
<g id="Theater">
</g>
<g id="Camera">
</g>
<g id="Paint_Palette">
</g>
<g id="Mime">
</g>
<g id="Cyclist_02">
</g>
<g id="Car_with_Bicycle">
</g>
<g id="Winning_Cyclist">
</g>
<g id="Cyclist_01">
</g>
<g id="Tour_de_France_Route">
	<path class="st0" d="M21.98,18.65l-7-16.5C14.94,2.06,14.87,2,14.75,2c-0.1,0-0.19,0.06-0.23,0.15L13.5,4.4V3.75v-1.5
		C13.5,2.11,13.39,2,13.25,2h-2.5c-0.11,0-0.2,0.07-0.24,0.17c-0.03,0.1,0,0.21,0.09,0.28L11.33,3L10.6,3.55
		c-0.09,0.06-0.12,0.18-0.09,0.28C10.55,3.93,10.64,4,10.75,4H13V5.5l-0.8,1.76L11.01,5.6c-0.05-0.07-0.11-0.1-0.21-0.1
		c-0.08,0-0.16,0.04-0.2,0.11l-8.56,13C1.97,18.73,2,18.88,2.11,18.96c0.11,0.07,0.27,0.04,0.35-0.07l8.36-12.7l1.23,1.71
		c0.05,0.07,0.14,0.12,0.23,0.1c0.09-0.01,0.17-0.06,0.2-0.15l0.98-2.15l1.38,1.53l-4.31,2.98c-0.17,0.12-0.26,0.32-0.23,0.52
		s0.17,0.37,0.37,0.44l6.12,2.02l0,0.08L6.7,16.21c-0.24,0.07-0.39,0.28-0.39,0.53c0,0.25,0.17,0.45,0.41,0.51l11.37,2.93l0.06-0.24
		l-0.06,0.32l-5.88,1.24c-0.14,0.03-0.22,0.16-0.19,0.3c0.02,0.12,0.13,0.2,0.24,0.2c0.02,0,0.03,0,0.05-0.01l5.88-1.24
		c0.25-0.05,0.42-0.26,0.43-0.52c0.01-0.26-0.16-0.47-0.41-0.54L6.84,16.77c0,0,0-0.08,0-0.08l10.09-2.94
		c0.23-0.07,0.39-0.27,0.39-0.51s-0.15-0.45-0.37-0.52l-6.12-2.02l-0.08,0.24l0.07-0.31l4.31-2.98c0.13-0.09,0.21-0.23,0.23-0.39
		s-0.04-0.31-0.14-0.43L13.68,5.2l1.06-2.33l6.78,15.98c0.04,0.1,0.13,0.15,0.23,0.15c0.03,0,0.07-0.01,0.1-0.02
		C21.97,18.93,22.03,18.78,21.98,18.65z M11.5,3.5l0.4-0.3C11.96,3.15,12,3.08,12,3s-0.04-0.15-0.1-0.2l-0.4-0.3H13v1H11.5z"/>
	<rect class="st1" width="24" height="24"/>
</g>
<g id="Cheese_Slice">
</g>
<g id="Wine_and_Grapes">
</g>
<g id="Notre_Dame_02">
</g>
<g id="Place_Vendome">
</g>
<g id="Fontaine_des_Mers">
</g>
<g id="Rooster">
</g>
<g id="French_Woman">
</g>
<g id="France_Map">
</g>
<g id="French_Man">
</g>
<g id="Hotel_de_Ville">
</g>
<g id="Siene_River">
</g>
<g id="Arc_de_Triomphe">
</g>
<g id="Eiffel_Tower">
</g>
<g id="Notre_Dame_01">
</g>
<g id="Chef">
</g>
<g id="Windmill_02">
</g>
<g id="Perfume_02">
</g>
<g id="Windmill_01">
</g>
<g id="Perfume_01">
</g>
<g id="Clothing">
</g>
<g id="Wine_and_Glass">
</g>
<g id="Painter">
</g>
<g id="Mona_Lisa">
</g>
<g id="Painting">
</g>
<g id="Picasso">
</g>
<g id="Couple">
</g>
<g id="Croissant_and_Cup">
</g>
<g id="Padlock_and_Key">
</g>
<g id="Coffee_Cups">
</g>
<g id="Love_Letter">
</g>
</svg>
